<svg viewBox="0 0 750 1000" xmlns="http://www.w3.org/2000/svg"><desc>NFT on the ERGO blockchain. Author @maritsaart. Copyright (c) 2001-2022 @maritsaart</desc><path d="m0 0h750v1000h-750z" fill="#1c3663"/><path d="m518 360c-13 7-25 15-35 26s-17 24-20 38c-19 72 5 142 23 184 7 16 41 74 51 88 21 29 172 299 175 304h38v-754s-217 105-232 114zm-374-360c12 74 43 147 63 167 18 18 48 29 73 32 23 3 48-3 64-21 5-4 9-11 17-12 5 0 10 3 14 7 10 8 17 20 26 29 19 19 46 26 72 25 65-3 109-46 122-55 11-8 50-45 55-57 6-15-1-37 5-42 8-9 23-5 33-2 30 11 56 2 62 0v-71z" fill="#a6cdc8"/><path d="m375 1000c-1-21-41-560-45-580-3-15-10-32-24-39-18-10-38-3-54 6-17 10-33 22-53 23-8 1-17-1-23-8-7-8-8-21-10-32-5-24-55-343-59-370h-64c5 29 58 313 79 388 43 151 58 186 72 222 13 37 25 74 33 112 27 120 14 224 10 278z" fill="#cd9e90"/><path d="m384 117c0-1-5-26-34-11-14 8-10 28 1 36 17 12 38-7 33-25z" fill="#fff"/><path d="m130 618c-2-19-18-95-30-108-2-2-5-1-5 1-11 32-16 65-19 98l-27 391h89c-2-55 2-310-8-382zm423 184c-6-11-16-22-30-23-13-2-24 7-31 18a439 439 0 0 0 -26 203h114c-6-31-20-183-27-198zm197-782v6c-44 1-191 15-220 16-29 0-147-6-177-1-28 5-56 13-84 19a2210 2210 0 0 1 -269 39v-6a4417 4417 0 0 0 164-20l106-20c30-6 59-15 89-19s152 2 183 1c30-1 169-14 208-15z" fill="#ff4f08"/></svg>