<svg viewBox="0 0 750 1000" xmlns="http://www.w3.org/2000/svg"><desc>NFT on the ERGO blockchain. Author @maritsaart. Copyright (c) 2001-2022 @maritsaart</desc><path d="m0 0h750v1000h-750z" fill="#cd9e90"/><path d="m453 0h-82c0 5-3 41-5 49-16 118-69 248-86 292-79 195-262 422-280 453v206h750v-103c-57-253-297-897-297-897z" fill="#fff"/><path d="m609 0c15 50 17 129 141 313v-313zm-609 0v199c64-31 414-191 436-199z" fill="#a6cdc8"/><path d="m303 561c-8-12-16-29-32-33-8-2-16 1-22 6-8 5-226 260-249 290v176h515c-32-44-195-407-212-439zm369 291c-5-4-10-7-16-6-6 0-11 3-14 8-4 5-79 146-79 146h187v-67c-15-17-66-72-78-81zm-511-655c-7-6-18-7-25-1-27 27 10 41 23 27 7-8 10-19 2-26z" fill="#ff4f08"/><path d="m534 75c-4-13-14-63-18-75h-35c17 142 269 522 269 522v-108c-99-89-198-285-216-339zm-534-75v65l52 6c107 12 136-36 197-71z" fill="#1c3663"/></svg>