<svg viewBox="0 0 750 1000" xmlns="http://www.w3.org/2000/svg"><desc>NFT on the ERGO blockchain. Author @maritsaart. Copyright (c) 2001-2022 @maritsaart</desc><path d="m0 0h750v1000h-750z" fill="#020616"/><path d="m367 73c0 49-136 88-304 88-22 0-43 0-63-2v-159h229c83 16 138 43 138 73zm383-1v120c-136-6-238-31-238-60s102-54 238-60zm0 189v70c-35-10-55-22-55-35s20-25 55-35z" fill="#069385"/><circle cx="362" cy="651" fill="#ff339e" r="179"/><path d="m750 635v73l-51-1-167-1h-262l-77 1-78 2h-115v-56c59-2 133-4 153-1 17 3 20 6 31 7 10 1 27 2 69 2 57 0 92 6 133 9 23 1 47 2 79 0 37-2 54-7 69-12l7-3c18-6 39-13 94-16z" fill="#069385"/><path d="m750 646v147a7208 7208 0 0 0 -550-68c-67-5-134-9-200-11v-11l187-16 199-17 148-12 7-1a2960 2960 0 0 1 209-11z" fill="#3c1549"/><path d="m626 0h9l-69 42-41 28-41 26c-28 17-53 39-76 62-22 22-41 47-59 72-17 24-33 50-49 75-15 24-31 50-49 73-10 12-20 23-32 33l-36 33-31 37c-11 11-24 21-37 30l-87 55-28 18v-9h1l44-28 44-29c14-8 28-18 40-29 12-10 21-24 31-37s21-25 33-36l34-32 30-34c39-45 67-98 104-145a476 476 0 0 1 101-98l37-29 85-52z" fill="#e0fff0"/><path d="m750 869v5l-43-1-57 1c-19 2-37 6-54 10l-55 8-53 5-51 7c-66 11-128 30-193 43a868 868 0 0 1 -160 16l-55 2h-29v-5h9l11 1a960 960 0 0 1 43 0 747 747 0 0 0 208-24c32-7 64-15 95-24 32-8 63-16 96-22l51-7c19-2 38-2 56-5l54-9c18-2 36-2 55-2z" fill="#069385"/><path d="m37 953 33 1-8 8h-52l-6-9 27-1 11-24c14-33-16-68-12-66 10 6 42 24 41 50 1 22-34 41-34 41z" fill="#e0fff0"/></svg>