<svg viewBox="0 0 750 1000" xmlns="http://www.w3.org/2000/svg"><desc>NFT on the ERGO blockchain. Author @maritsaart. Copyright (c) 2001-2022 @maritsaart</desc><path d="m0 0h750v1000h-750z" fill="#a6cdc8"/><path d="m0 0v356c16-18 30-38 41-59 15-27 24-55 33-84 21-72 63-98 63-98 28-19 90-8 105-8a231 231 0 0 0 188-107z" fill="#fff"/><path d="m610 254c0-6-4-61-24-85-15-17-21-33-53-51-34-18-88-20-90-20-33-1-94 20-131 45-3 2-67 51-81 92-10 29 11 117 17 131 7 14 20 48 81 84 15 9 68 6 75 5 85 0 145-34 160-51 37-40 53-97 46-150z" fill="#ff4f08"/><path d="m750 692v308h-750v-349c4-2 51-15 71-16l28 1 52 6c15-2 25-12 33-23 2-3 48-99 62-120 36-56 76-81 89-87 11-5 26-10 35 2 4 5 6 11 7 17 2 8 42 178 74 183 12 2 23-5 31-14 8-10 12-23 19-34 5-11 15-20 26-26 10-4 22-5 30 2 6 4 9 11 11 17 2 8 19 68 25 73 12 9 28-2 37-10 10-9 19-21 32-27 12-5 25-2 33 9 8 10 50 82 55 88z" fill="#fff"/><path d="m750 267c-23-6-118-32-144-37l-69-10c-18-1-127-8-164-13l-192-36a7160 7160 0 0 1 -181-46v7h1a2997 2997 0 0 0 439 90c19 2 92 4 109 6 20 2 39 5 59 9l142 37zm0-86-141-11c-10-1-360-35-391-40l-82-15-136-31v7a9474 9474 0 0 0 199 42c35 6 158 22 184 24 66 7 311 26 367 30zm-324 605c-18 3-36 0-54-8-30-13-58-36-92-36-15 0-29 6-41 14-11 8-22 18-35 22h-18c-17-5-30-22-41-35-4-4-29-30-72-32-1 0-41 2-73 23v213l51 1 66 1 72 1h21l58 1 142 2c47 2 94 6 141 13a1090 1090 0 0 0 199 10v-270c-51 13-305 77-324 80zm-426-786v19l120 7c20 1 206 7 268 7 6 0 167-1 200 2s141 23 162 27v-62z" fill="#1c3663"/><path d="m140 281-9-154c-1-3 1-118 2-127h-35a889805 889805 0 0 0 -16 294c-2 42 0 367 0 380l-2 37c-3 72-17 230-17 237-2 17-2 35 1 52h58l22-269c2-29 2-366-4-450zm53 312c0-137 8-583 8-593h-20l9 1000h25c-2-17-22-403-22-407z" fill="#cd9e90"/></svg>