<svg viewBox="0 0 750 1000" xmlns="http://www.w3.org/2000/svg"><desc>NFT on the ERGO blockchain. Author @maritsaart. Copyright (c) 2001-2022 @maritsaart</desc><path d="m0 0h750v1000h-750z" fill="#fff"/><path d="m0 0v242a4331 4331 0 0 1 102-148c23-32 46-63 71-94zm578 0c-7 9-49 66-60 120-3 13-12 32-23 52l-4 8c-15 27-33 54-44 69-14 18-87 97-137 151-24 27-44 48-46 52-9 13 7 43 17 35l31-31 81-85c17-20 102-101 124-115 42-29 89-50 131-79 21-13 41-29 58-47 18-18 43-66 44-68v-62z" fill="#020616"/><path d="m296 867c-2-12-4-22-4-30-4-56 71-86 68-189-1-38-24-79-30-95-5-15-21-42-18-97l1-5c0-5 1-27-3-51-7-40-30-84-101-63-32 9-49 26-94 38-20 6-110 27-115 28v350l146 247h181c-1-16-18-77-28-122z" fill="#069385"/><path d="m606 268c-16 11-56 36-84 70-27 32-51 66-79 97-11 14-31 42-28 77 1 7 11 143 55 294l1 5c19 64 44 129 76 189h203v-776c-13 5-87 3-144 44z" fill="#3c1549"/><path d="m680 476c-21 5-48 12-55 36-6 22 13 37 25 52l17 26c7 10 16 17 27 23l56 30v-169c-10-2-57-1-70 2zm-143-20c-5 4-30 9-37 9-26 3-30 16-31 19-6 17 5 26 11 27 13 2 25-4 33-13 23-22 56-9 66-24 13-21-21-32-42-18zm53 129c-6 0-49-8-63 18-4 8 3 16 11 18 17 5 67-17 67-25s-9-11-15-11zm76 318c-2-11-19-10-29-11-15-1-63 1-69 3-11 3-19 14-15 26 5 12 17 15 29 17 13 2 90 4 84-35zm20 29c-28 40-14 62-12 68h76v-108c-8 2-40 4-64 40z" fill="#fff"/><path d="m465 944a81 81 0 0 0 -41-19c-25-4-51 4-65 25-7 11-14 45-14 50h176c-5-8-41-47-56-56z" fill="#ff339e"/><path d="m750 853v16l-29-6-45-3c-14-1-28-4-41-7-25-7-48-18-72-26a301 301 0 0 0 -92-16 276 276 0 0 0 -172 67c-15 13-27 27-36 44-12 20-15 44-17 67l-2 11h-14l3-30c2-13 4-26 9-39 5-12 12-24 21-34 9-11 21-21 33-30a408 408 0 0 1 82-44 305 305 0 0 1 92-16h42c23 1 47 7 69 14 25 8 50 17 75 22 27 5 54 2 81 7z" fill="#ff339e"/><path d="m270 0a224 224 0 0 0 -34 124c-1 29 3 60 19 85 7 11 16 20 28 24 16 6 32 1 46-5 59-24 105-72 141-123 24-34 45-70 67-105zm465 513h-22l-21-1c-12 1-21 9-22 22-2 22 15 43 32 55 14 11 31 18 48 23v-100z" fill="#069385"/><g fill="#ff339e"><path d="m750 820v11l-36-8c-28-8-57-14-83-25-12-5-22-11-32-18l-29-24c-11-8-22-14-36-18-13-3-27-4-40-4a880 880 0 0 1 -169-20c-57-10-113-24-170-33a569 569 0 0 0 -125-7l-30 5v-7c24-8 51-10 77-10 31 1 62 7 92 13 57 12 114 26 171 37a963 963 0 0 0 132 15c14 1 27 1 40 3s25 4 37 9c11 5 22 12 32 19 10 8 20 17 31 23a206 206 0 0 0 72 28l39 6z"/><circle cx="259" cy="281" r="17"/></g></svg>