<svg viewBox="0 0 750 1000" xmlns="http://www.w3.org/2000/svg"><desc>NFT on the ERGO blockchain. Author @maritsaart. Copyright (c) 2001-2022 @maritsaart</desc><path d="m0 0h750v1000h-750z" fill="#a6cdc8"/><path d="m646 231c-47 54-135 151-195 201-63 52-158 96-234 157-91 74-198 227-217 262v149h750v-187c-5-3-57-29-80-34-25-5-50-7-75-9-27-3-205-2-222-3-7-1-58-7-80-30-7-8-18-19-9-30 21-28 157-61 167-64 39-10 238-49 299-52v-474c-24 24-93 101-104 114z" fill="#cd9e90"/><path d="m534 825-305 39c-32 5-64 13-94 24-46 15-89 41-135 56v45c16-5 170-41 231-52h1l203-33c69-11 312-34 315-34v-66zm-90-679c-4-8-355-54-358-51-30 35-46 81-45 129 0 26 4 54 17 78 25 45 65 99 116 114 24 8 78 6 79 6 49-4 96-22 134-53a192 192 0 0 0 57-223z" fill="#fff"/><path d="m472 1000h278v-105c-32 11-265 99-278 105zm-472-1000v89c29 1 150 12 183 16l352 58 215 42v-205z" fill="#ff4f08"/><path d="m256 700c-5-41-10-129-10-133-1-39 2-77 3-115 1-10 2-52 1-64-2-30-13-82-18-125-2-21 2-121 5-151l12-112h-92c4 13 22 83 26 105 19 104 32 430 34 484l18 411h64c-2-18-37-248-43-300zm332-700-137 432-97 332c-8 28-15 56-18 85 0 5 0 52 2 70l7 77v4h25c3-25 31-136 37-160l83-407c3-14 70-295 137-433zm111 695c-5-6-14-9-21-10-11-1-21 2-31 3-20 3-55 5-57 31l1 8c1 4 2 4 6 4a178 178 0 0 0 42 2c12 0 25 0 37-3 9-2 18-6 23-13 5-6 5-16 0-22z" fill="#1c3663"/></svg>