<svg viewBox="0 0 750 1000" xmlns="http://www.w3.org/2000/svg"><desc>NFT on the ERGO blockchain. Author @maritsaart. Copyright (c) 2001-2022 @maritsaart</desc><path d="m750 0v1000h-670l-80-92v-908h748z" fill="#3c1549"/><path d="m740 378-2-22c-6-54-13-107-26-159v-2l-1-3v-2l-1-1-12-43-3-10-5-14-2-6-1-4c-8-21-17-43-29-64-9-17-22-34-37-48h-216a228 228 0 0 0 -34 30l-3 2-5 6c-16 19-28 41-37 64-16 39-23 81-30 122l-2 10v3l-2 11-16 81c-5 27-7 55-10 83-3 23-8 48-21 69a91 91 0 0 1 -47 39c-27 9-56 1-83-1-28-3-55 1-79 15-14 8-25 17-36 28v346a435 435 0 0 0 117 63 276 276 0 0 0 122 11l37-6 194-41c54-11 108-21 159-41a334 334 0 0 0 67-34 193 193 0 0 0 52-54l2-3v-375c-5-16-8-33-10-50z" fill="#020616"/><path d="m0 491 12-1c11-2 20-9 28-16l29-24c17-14 35-30 39-51 7-37-21-73-58-88-16-6-33-9-50-10z" fill="#020616"/><path d="m0 908v92h241l-2-17v-7l-2-16a1456 1456 0 0 0 -15-95l-1-1c-21-113-63-254-129-251-48 2-76 74-92 159zm441-113c-16-77-47-191-100-193-58-1-84 164-86 238v27c0 6 199-4 198-10zm277-426c-9-45-30-115-62-116-39-1-58 71-65 109l-4 21c0 2 136 23 135 18 0-5-1-17-4-32z" fill="#e0fff0"/><circle cx="106" cy="124" fill="#ff339e" r="104"/><path d="m512 227-1-10c-11-94-37-186-93-187s-85 85-98 163a632 632 0 0 0 -6 112c14 77 204 111 204 111l1-45c1-37-1-91-7-144z" fill="#e0fff0"/><path d="m750 385v615h-659l26-29c26-31 64-74 104-107a337 337 0 0 1 36-25c11-7 64-48 147-46l37 2c33 0 83-4 125-27 11-6 86-42 99-92 8-32 13-137-79-116-32 8-82 23-144 8-19-4-83-22-116-105-5-11-42-90-11-229l1-3 1 2c4 13 18 62 27 79 39 68 147 63 175 60h1l71-10 17-2c43-3 82 0 110 9l22 9z" fill="#069385"/><path d="m552 868c-5-1-11 1-15 5-2 2-1 5 1 6 4 1 17 0 20-6 1-3-3-4-6-5zm133-109c-14-4-29 1-39 11-6 6-3 13 4 16 8 3 43 2 49-14 3-8-7-12-14-13zm-245-260c-15-3-30 2-40 12-5 5-2 13 4 15 8 4 44 2 50-14 2-7-8-11-14-13zm310 501h-127l2-12a542 542 0 0 1 28-104c13-28 29-48 49-47 6 0 12 1 17 4 11 6 22 17 31 32z" fill="#e0fff0"/><path d="m0 276h26c32-1 64 0 96-2 30-2 58-10 87-19l47-13a325 325 0 0 1 60-11h4c52-6 104-5 156-6a1440 1440 0 0 0 91-4c30-3 59-9 89-16 17-4 34-8 51-10h4l39-3v-6a1238 1238 0 0 0 -72 7c-30 6-60 14-90 18a974 974 0 0 1 -94 4c-59 0-117-2-175 5l-2 1-18 2-3 1c-18 4-57 15-64 18-29 10-57 21-88 26-35 5-72 3-108 4h-36zm750-139v33a2786 2786 0 0 1 -66-31c-30-16-61-27-92-41-30-14-61-30-91-46s-59-34-93-29l-37 6c-19 4-38 5-56 1-14-3-26-8-39-13l-32-17h11l22 11c20 9 40 16 62 14 16-2 32-7 48-12 16-4 32-7 47-6 31 4 61 25 90 41a1978 1978 0 0 0 138 65 349 349 0 0 0 47 14z" fill="#ff339e"/></svg>