<svg viewBox="0 0 750 1000" xmlns="http://www.w3.org/2000/svg"><desc>NFT on the ERGO blockchain. Author @maritsaart. Copyright (c) 2001-2022 @maritsaart</desc><path d="m0 0h750v1000h-750z" fill="#fff"/><path d="m750 339v661h-750v-249c58-5 307-50 395-35l5 1c22 4 50 17 68 27 16 9 77 44 99 21 74-74 9-250 183-426z" fill="#ff339e"/><path d="m750 146v43c-51 14-160 30-358 46 0 0-277 17-392 53v-111c194-47 435-95 516-65 0 0 159 13 234 34z" fill="#069385"/><path d="m94 286s25-11 46 16c0 0 31-21 52-13 0 0-41 6-52 28 0 0-2-34-46-31zm-49 31s14-6 26 9c0 0 18-12 29-7 0 0-23 3-29 16 0 0-2-19-26-18zm481-229s13-6 19 6c0 0 13-9 21-5 0 0-11-2-21 11 0 0-1-13-19-12z" fill="#020616"/><path d="m750 988v6h-750v-159a1922 1922 0 0 1 303 13c148 19 288 53 366 91l46 24c22 13 30 19 35 25z" fill="#069385"/><path d="m743 994c-11-10-28-19-49-28-85-36-237-70-391-99l-189-34-114-20v187h750z" fill="#3c1549"/><path d="m715 963-19 3h-2l-114 16-81 12-44 6h295v-41zm-608 37h-107v-50a472 472 0 0 1 107 50z" fill="#020616"/><path d="m441 755c-8-18-28-25-41-38-3-4-6-7-8-12-14-32-61-68-136-82-13-3-50-17-70-41-17-21-48-59-95-75-26-9-62 1-91 12v256c84-13 170-10 255-9 59 1 118 3 176 6 10 0 13-10 10-17z" fill="#3c1549"/></svg>