<svg viewBox="0 0 750 1000" xmlns="http://www.w3.org/2000/svg"><desc>NFT on the ERGO blockchain. Author @maritsaart. Copyright (c) 2001-2022 @maritsaart</desc><path d="m0 0h750v1000h-750z" fill="#a6cdc8"/><path d="m750 510v12h-1a1584 1584 0 0 1 -312 17c-143 26-197 29-231 18l-71-21c-24-5-116 5-135 6v-7l76-6c26-1 52-5 77 2 11 4 58 19 70 20 51 6 123-8 148-12 25-3 50-8 75-9l195-6c37-3 73-8 109-14z" fill="#ff4f08"/><path d="m566 0h-486c-1 4 7 74 19 103 9 23 51 109 64 129 25 36 60 69 100 88 54 26 102-4 120-19 31-26 55-62 58-115 13 10 43 13 74-12 60-47 52-164 51-174zm43 63c-2-4-10-32-16-41 0-1-10-16-7 30 1 15 5 30 13 44 17 25 18-9 10-33zm-19 99c-8-45-19-29-19-29-7 15 11 39 14 44 0 1 12 16 5-15zm35-11c1-5 0-11-3-16-1-2-4-1-4 1-1 5 0 14 4 17 2 2 4 0 3-2zm-118 76c-7 10-4 24 0 36 14 34 23 14 24 11 4-12-11-65-24-47zm134-191c-12 8-3 35-1 37 10 3 11-13 11-18 1-13-7-21-10-19z" fill="#fff"/><path d="m465 213c0-3-3-6-6-3-1 3 1 14 1 14 1 8 8 13 5-11zm-7 58c-2-3-6-3-8 0-5 10 3 27 4 28 4 6 7 4 9-1 3-6-3-25-5-27zm131-28c-2-4-5-12-10-13s-10 7-10 12c-5 29 18 42 20 42 7 2 14-10 0-41zm21-51c-2 7 1 15 5 20 8 13 13 5 13-1s-12-34-18-19zm61-85c-1-1-7 0-8 2-4 6-4 16-1 23 9 19 14-2 14-6 1-6 2-16-5-19zm41-69c0-4 0-12-6-12-2 0-6 1-6 13 1 7 4 14 6 13 7 0 6-9 6-14zm-87-15c-1-5-3-18-10-15s-2 17 0 20c6 13 12 5 10-5zm85 59c-1-2-5-1-3 1 0 1 1 4 3 2zm-22 101c-1-2-4-2-4 1-1 2-2 15 2 16 1 1 3 1 3-1 1-5 1-11-1-16zm-1 67c-3-3-6-2-8 0-3 5 1 13 4 16 1 1 6 1 7-1 2-2-1-14-3-15zm-23 110c0-5-3-9-7-12-2-3-6-2-7 1-1 2 4 25 10 23 5-1 5-7 4-12zm-22-86c-2-2-6-2-7 1v1c0 1 2 16 6 20 2 2 5 0 6-2 2-7 0-15-5-20zm-37 104c-2-2-5 0-5 3 0 1 1 11 4 14 2 1 4 1 5-1 4-6 2-13-4-16z" fill="#fff"/><path d="m465 686-24 13a1088 1088 0 0 1 -216 71c-20 3-65 0-111 23a387 387 0 0 1 -114 39v-131c20-11 41-18 63-24 13-4 92-18 105-19 38-5 207-12 225-11 27 2 58 8 74 32 1 3 0 6-2 7zm175-155-10-15c-11-13-78-59-87-61-17-5-34 4-48 14-13 10-63 55-73 94-2 8-3 18 2 25 9 12 27 14 41 16 19 3 97 15 116 13 16-2 57-10 64-57 1-11-1-21-5-29z" fill="#1c3663"/><path d="m147 369c-5-5-14-11-24-12-4-26-32-66-54-84-17-14-38-25-60-29l-9-4v268c23 0 48-4 68-14 12-7 36-26 43-41 18-1 43-9 50-22 14-28-5-54-14-62z" fill="#fff"/><path d="m624 700c-57 14-116 5-172 22-53 16-98 48-150 65-54 18-111 19-165 33-14 4-66 26-79 32-18 9-38 17-58 21v127h410c41-42 119-71 151-86 48-24 72-55 86-69 13-14 27-27 41-39 15-12 57-44 62-50v-97c-44 4-84 32-126 41z" fill="#cd9e90"/></svg>