<svg enable-background="new 0 0 750 1000" viewBox="0 0 750 1000" xmlns="http://www.w3.org/2000/svg"><desc>NFT on the ERGO blockchain. Author @maritsaart. Copyright (c) 2001-2022 @maritsaart</desc><path d="m0 0h750v1000h-750z" fill="#3c1549"/><path d="m691 889a381 381 0 0 1 -11 90v2l-5 19h-675v-342l2-2a378 378 0 0 1 207-139l3-1 44-8 3-1h8a387 387 0 0 1 197 31l2 1c13 6 25 12 36 19l2 1 3 2 10 6 2 2c9 5 17 11 26 18l1 1a366 366 0 0 1 108 137l1 3c9 18 16 37 22 57l1 4c5 18 8 36 10 55l1 3v7l2 26z" fill="#ff339e"/><path d="m148 539c-8-8-17-14-25-17-48-17-84 22-123 23v141c20 2 48 7 65 0 32-14 41-40 49-47 18-17 58-4 66-27 5-19-12-52-32-73z" fill="#069385"/><path d="m690 854-20 9c-15 9-28 19-42 29-14 11-29 20-45 26l-44 16-3 1h-2l-9 3-4 1a514 514 0 0 1 -44 11l-4 1c-15 2-30 4-45 3-18-1-34-6-51-12l-24-6h-26a86 86 0 0 1 -30-4l-13-7-3-2-4-4c-9-7-17-16-26-25l-2-2c-6-6-13-11-20-15l-3-2-3-1c-26-11-55-8-81-17l-18-10c-5-5-10-11-16-15-13-9-29-3-42 4-24 13-46 29-66 48v116h750v-164c-21 4-41 9-60 18zm-690-367a2262 2262 0 0 0 170-54l3-2 29-9 3-1c51-16 103-27 155-37l242-40 4-1h3l16-3 125-22v11c-28 6-76 14-131 23l-3 1-11 1-3 1-5 1h-4c-103 17-219 34-260 40s-82 18-124 31l-3 1-14 5-7 3-12 4c-54 19-110 39-173 55v-29zm0-33v12l153-70 2-1 19-9 5-2 86-41c38-22 67-44 90-65l4-3 28-29 2-3 15-17 2-3 30-39c77-86 134-144 179-184h-12l-6 5c-52 46-100 97-148 148-22 24-40 47-59 70l-2 3-5 6-2 2-23 25-19 19a495 495 0 0 1 -166 99l-2 1-6 2-4 2-9 5-3 1zm750 106v14l-90 25c-26 7-49 16-73 26-31 14-65 28-109 41l-3 1-8 3-6 1-28 7c-19 4-82 7-122 12h-4a191 191 0 0 0 -37 7l-4 1c-43 14-83 35-126 50-46 17-93 30-140 41v-12c57-13 114-29 168-51 34-13 67-28 101-39l3-1 24-5 4-1 8-1c25-4 126-10 152-16l5-1 13-4c27-9 54-24 99-42a1307 1307 0 0 1 173-56z" fill="#020616"/><path d="m695 419c-10 6-34 20-60 26-32 9-36 38-30 48 12 21 50 18 62 22 32 12 61 17 83 19v-131c-16 0-37 3-55 16zm-695-419v28c18 4 47 17 79 47 43 42 100 35 115 34 70-6 126-36 140-45 46-32 93-14 135-36l50-28z" fill="#069385"/><g fill="none" stroke="#fff" stroke-miterlimit="10" stroke-width="4"><path d="m0 276h750" stroke-linejoin="round"/><g stroke-linecap="round"><g stroke-linejoin="round"><path d="m2 259 80-35h588l78 37m-550 737 78-339h199l77 339"/><path d="m653 275-275 383-280-384 178 385 99 94 100-94zm-424 590h292l-146-112z"/><path d="m299 809-44-58h239l-42 59m-184-112 50 1-62 52m227-52h-51l62 52m-274 246 157-131 154 132m-314-79 66-54 28 54h-94l34 50h-46"/><path d="m534 920-65-55-29 55h94l-34 51h45m-113-312-22-45 86-1-45-55h69l-30-56h56l-11-62 43-6-5-47 31-9-3-30 21-8m-302 319 24-47h-87l47-54h-74l33-57h-60l14-64-45-4 7-48-34-10 4-28-21-9m307 321 61-46m-179 46-60-47"/></g><path d="m720 275-3-27-64 27 17-51 66-165-143 215-35-48-28 48-34-48-27 48-31-48-30 48-31-48-29 47-30-46-27 47-34-48-33 48-30-48-32 48-34-51-112-162 66 163 16 50-66-26v26"/><path d="m653 275-27-51m44 0-23-31h34l-6-42 25-4-1-31 19-12m-620 170 30-51m-46 1 23-32h-35l8-40-27-5-3-38-14-6" stroke-linejoin="round"/></g></g></svg>