<svg viewBox="0 0 750 1000" xmlns="http://www.w3.org/2000/svg"><desc>NFT on the ERGO blockchain. Author @maritsaart. Copyright (c) 2001-2023 @maritsaart</desc><path d="m0 0h750v1000h-750z" fill="#ff6e51"/><path d="m750 0v364.2c-81.4 123.1-221.1 204.3-379.7 204.3-152.7.1-287.7-75.2-370.3-190.8v-377.7z" fill="#fdbd56"/><path d="m0 741h750v259h-750z" fill="#377983"/><circle cx="383" cy="115" fill="#fae9ca" r="76"/><path d="m424 656.4-3.3-58.8-14.5-4.2-2.9-56.4 4.2 2.5-1.2-26 3.9-3.9-2.5-72.6 13.7-4.9 30.6-.2s9.1-9.1 11.3-19.6c0 0 4.9-1.7 10-.2 5.1 1.2 19.4-2.5 21.8-8.1 2.2-5.4-12.7-1.5-12.7-1.5s2.2-1 2-2.2-12.5.2-15.4 2.5c-2.9 2.2-5.1 1.7-5.1 1.7l-.7-2.2s-10 2.5-18.9 2.5c-9.1 0-38-5.4-44.6-8.3-2.2-1-7.1-2-13.5-2.9 0-10.1 0-24-.2-27-.5-4.9-7.8-11-15-7.1-5.6 3.2-9.8 24.5-11 32.6-6.6 0-13 .5-19.1 1.7-21.8 3.9-26 4.4-26 4.4s-22.1 3.2-31.9.2l-.7 2s-5.1-2-9.1-4.4c-3.9-2.5-11.5-1.7-11.5-1.7s-3.2-1-3.4.2 2.5 2.5 2.5 2.5-12.5-.7-12 2c.7 2.5 13.5 8.1 21.8 7.6 8.3-.2 10.5.2 10.5.2s6.4 13.2 10 15.7c3.4 2.5 7.6 5.4 7.6 5.4l22.5-2.2s14.5 8.1 19.4 8.6l.7 42.2 3.2 2.9-1.2 21.3 3.9 2.5c-.5 16.2-2 63.8-2.7 88.8-6.9 2.5-15.2 5.4-15.2 5.4l-4.1 59.6c-11.3 3.4-30.3 11.3-49.2 28.7-24.7 22.9-145.8 218.3-206.6 314h680.6v-167z" fill="#000d23"/></svg>