<svg enable-background="new 0 0 750 1000" viewBox="0 0 750 1000" xmlns="http://www.w3.org/2000/svg"><desc>NFT on the ERGO blockchain. Author @maritsaart. Copyright (c) 2001-2023 @maritsaart</desc><path d="m0 0h750v1000h-750z" fill="#ff6e51"/><path d="m570 644h-31l-148-1-24-1h-116l-10-1-221-1h-20v-195l244 57 245 107 11 4 1 1 7 3 10 4 12 6zm180 356-403-356-347 195v161z" fill="#377983"/><path d="m750 661v339l-328-296-169 7-253 181v-263l281-18z" fill="#fdbd56"/><path d="m750 242v167c-112 60-243 127-276 128-80 1-222-100-309-127-29-10-98-16-165-19v-151l125-28c104-21 234 114 370 118 44 1 155-43 255-88z" fill="#fae9ca"/><path d="m750 98v91c-33 17-52 32-62 30-20-2-51-36-96-43-46-8-66 27-109 21-44-5-58-34-111-34s-85 33-198 24c-35-3-106-2-174 1v-113c34 7 72 19 105 43 62 51 300 12 336 23 23 7 45 33 54 33s33-38 69-42c14-1 27 16 51 18s78-53 135-52z" fill="#fdbd56"/><path d="m750 648v101l-250-125 34-29z" fill="#000d23"/><path d="m548 698 88 149h107l-.7-172.8z" fill="#000d23"/><path d="m637 841v-143h-89v94z" fill="#fae9ca"/><path d="m562 752h10s2-16-6-16-4 16-4 16zm36 0h10s2-16-5-16-5 16-5 16zm-41 30-215-144-34 3 186 147zm-97-217 40 59 37-5-6-59z" fill="#000d23"/><g fill="#fae9ca"><path d="m253 711-2-116-7-5-7 105z"/><path d="m750 671v25s-114-3-196-17c-26-4-255-60-303-58-3 0-245 24-251 27v-41c33 1 271-33 350-16z"/><path d="m500 570v54s-89-46-139-60c-65-19-86-25-117-46s-210-58-244-62v-31c37 10 186 56 218 61 33 5 70 18 93 39 20 19 127 51 148 58l1-18z"/></g><path d="m253 711-2-105 116 2 1 104z" fill="#000d23"/><path d="m553 773-65 5-177-136-1.1 69.5 164.1 128.5 64-15 80 175h114z" fill="#fae9ca"/><path d="m750 920v80h-40l-156-226 46-5z" fill="#000d23"/></svg>