<svg enable-background="new 0 0 750 1000" viewBox="0 0 750 1000" xmlns="http://www.w3.org/2000/svg"><desc>NFT on the ERGO blockchain. Author @maritsaart. Copyright (c) 2001-2023 @maritsaart</desc><path d="m0 0h750v1000h-750z" fill="#377983"/><path d="m750 141v859l-41-6-64-9h-4l-72-11-15-2-158-22-396-56v-511c140.6-273.6 476-381.8 750-242z" fill="#fdbd56"/><path d="m654.2 999.9h-654v-232c40-22 196-97 418-144z" fill="#377983"/><path d="m547 0c-120 80-468 51-546 158v-158zm203 230v770h-192c-3-7-128-158-128-158l-24-3 20-245c-8-33-21.3-48.2-21.3-48.2-8-16 50.3-37.8 50.3-37.8l22-58s35-52 11-105c0 0 75-90 106-112s113-26 128-24z" fill="#fae9ca"/><path d="m575 462c-21 29-18 77-36 83l-16 6 41 28s7-15 7-41c-1-26 1-46 37-123zm-118 208 9-19-47 6-15 16zm11-38s1-12 4-12c10 0 35-1 55-12 17-9 27-19 32-24-5 4-137 11-137 11 0 11-3.9 32.7-13.9 52.7 0 0 51.9-16.7 59.9-15.7zm-33 105c26-30 82-21 100-45 8-10 19-29 19-29l-141 25c-2 19-11 79-24 113-12 30 5.8 36.8 18 38.1 0 0 6-77.1 28-102.1z" fill="#ff6e51"/><path d="m750 242v523s-46 35-92 74c-57 49-98 157-100 161h-187l66.5-133.1s207.5-63.9 217.5-70.9l36-23c53-37-33-148-58-219-34-97 103-125 100-190-2-60-3-102 5-114 2-3 12-8 12-8z" fill="#ff6e51"/><path d="m518 430 30-60s7-12 34 2c18 10 26 44 26 44s21-25 101-39c0 0-27-67-96-69-65-2-125 37-125 37s-25 34-4 73c2 4 3 13-7 32 5-1 35-9 41-20zm-81 171c45 5 46-8 69-10 52-3 58-6 59-12 2-4-55-43-75-39-13 4-51 17-64 14-14-2-22-11-22-11s-4 53 33 58zm97 48s-34-14-66-17c-20.2-1.7-40.5 2.8-58 13-8 5-1 14 9 12s115-8 115-8zm216-384v370s-60-44-22-122c40-82 10-242 22-248zm-276 658c24 9 82-8 122-52 37-41 57-71 59-75 0 0-80 30-108 35-43 7-117 11-117 11s15 70 44 81zm-20-231c47-5 100-29 100-29s-48-3-96 3c-24 2-54 7-54 7s-5 11 9 15c8 3 20 6 41 4zm296 122v12s-45 25-45 76l4 98h-70c1-1 23-120 81-168 8-7 30-18 30-18z" fill="#000d23"/></svg>