<svg enable-background="new 0 0 750 1000" viewBox="0 0 750 1000" xmlns="http://www.w3.org/2000/svg"><path d="m0 0h750v1000h-750z" fill="#f62b00"/><desc>NFT on the ERGO blockchain. Author @maritsaart. Copyright (c) 2001-2023 @maritsaart</desc><path d="m750 46v954h-691c-55-612 594-925 691-954z" fill="#7ec5c2"/><path d="m750 804v196h-750v-178c255 181 570 108 750-18z" fill="#4c0940"/><path d="m539 1000h-352s-25-593-17-601l9 20c0 1 8-11 13-13 16-6 20 3 20 3s12-7 13-15c0-10 1-23 7-25l85-44-9.9-142.2 53.9-43.8 17-1 44 30c8 1 39 13 36 39-3 24-11 25-11 25l9 194z" fill="#7ec5c2"/><path d="m375 178 33 25c-12-9-16-34-8-34 7-1 14 7 30 13s15 25 15 25c24-30-25-42-25-42s-3-15-11-23-31-4-31-4c24 18-3 40-3 40zm17 87-1-17-8-13-11-1 1 31zm9-1c5 8 16 9 17 17 0 0 9-38 1-38h-6s-2-34-9-35-3 38-3 38-5 11 0 18zm-23 18 17-4 1-4-11-1zm215 436s-6-25-6-34c-1-9-17-23-17-23l-4.9-24.2c.5-3 8.7-30.8 8.7-32.8s-36.8-204-45.8-225c-9-20-88-42-88-42l-22-22-51 27s48 92 44 125c-3 18-71 66-71 66l8 60c48 34 93 1 93 1l7 26c-8 6-41 10-41 10v23c0 1 47-11 47-13l69-53 14 63 20 22s-18 4-25 7c-9 4-1 79-1 79l39 3c6.4.2 5-48 5-48s12 9 18 5zm-61-211-1 37-53 15s15-143 31-159zm-165-165h-1zm-197 57c-2 7 6 22 8 9 1-12-8-9-8-9zm41 16c0 8 9 8 7 2s-7-2-7-2zm24 84c4-6 12-29 2-47-12-22-11-28-12-27-12 10-3 11 4 25 7 12-8 269-8 269l18-26 8-195z" fill="#fff"/><path d="m230 749-51-198 37 428zm333 251h-31l5-125 25-22z" fill="#fff"/><g fill="#08041b"><path d="m358 260s9 3 10-8 3-22-4-26c-28-17-42 10-39 13s5-10 16-12c9-2 20 2 21 6s-1 10-1 10l-24-2s2 7 11 8l13 2s2 7-3 9zm37-31c5-3 16-3 21 2 0 0 6 6 8 4s-2-13-16-14-28 2-28 13 1 22 8 23 21-14 32-14c0 0-11-4-28-2 0 0-2-10 3-12zm-172 201 5-1s-1-45-9-45-7.1 25.4-7.1 25.4 11.1 1.6 9.1 10.6c-3 10-10 4-10 4v17l7 3s0-13 5-14zm2 35c3-5-4-13-4-13 2 4-3 9-13 17s2 44 2 44c4-3 6-1 4-22-3-21 11-26 11-26zm-17-51c-23 0-10 32-10 32-3-29 10-32 10-32z"/><path d="m251 1000h-36c0-10 5-289-24-387l-22-102c-6-28-.1-37.8-.1-37.8 1 53 25.1 57.8 39.1 56.8 13-1 20.7-24 22.7-31 0 2 17.3 485 20.3 501zm141-732-11 2h-11l-12-2s8 5 12 10h11c0 1 7-8 11-10z"/><path d="m593 718-5-3c-11-2-13-21-13-31-1-4-13-18-15-20 3-1 4-2 4-6-3-17-28-25-28-25l-2-54s12 6 20 14c17 18 11 44 11 44s28-41-14-62c-12-6-30-6-58 14-29 19-20 41-49 52-10 4-76 20-107-2-20-15-30-25-34-83 0 0 42-2 77-18 39-19 57-36 64-43v88l-19.8 19.8c37 1 94.8-52.8 96.8-55.8 0 0-14 0-32 8 0 0 1-100 19-147 4-9 17-24 20-24 0 0-35 2-44 83l-12 99-21 12c2-40 6-167-6-200l-16-48h12c0-2-10-27-10-45 0 0-11 23-22 33s-10-3-2-14c4-5 3-14 0-21-3-9-9-17-13-16 0 0 3 11-1 15-7 6-34 7-35 1-1-3-7 0-4 5s9 1 11 6 4 15-6 15-20-31-28-24-16-20-17-36c0-2-2-28 10-37s26-16 61-11 48 14 50 25 0 27 0 27 5-13 3-27c8-4 7-32 7-32-1 3-10 13-13 14-5-7-35-15-37-15-8-6-17-17-5-29 0 0-19 8-16 17l6 11c-30-2-44 0-54 8s-16-18 2-25 22-5 22-5-3-25.3 15-31.3c0 0-22-4.7-41 29.3 0 0-34 6-33 31s10 30 10 30-9 24 6 42l1 55 8 1v5l-24 15-11.3-3.4-49.7 25.4 26 160-10 10 25 461h198s5-343 11-364c9-34 29-33 29-33-3 3-5 7-7 13-19 7-18 44-18 44l-1 340h23v-269c7 12 15 18 15 18l1 251h22l7-237 18 2v-4s-6 1-9-31c1 6 1 28-5 29-8 0-8-28-8-28s0 27-7 27c-6 0-6-20-7-27-1 6 0 13-6 13-9 0-15-61-3-76 5-7 13-6 21-5-4 20 10 24 14 27 5 4 10 23 10 23l14 11c7.2 2.4 11-3 9-6zm-278-358s12 19 40 7c22-10 60-46 60-46s46 86 7 134l-11 12c-23 23-62 54-110 45-1-39 8-141 14-152zm67 539c-56 0-73-56-73-56l-1-71c29 70 88 50 98 45 33-19 46-72 46-72l7 85c-12 68-77 69-77 69zm70-176c-33 68-90 55-90 55-27-3-53-78-71-147 16 17 39 36 69 39 39 4 82-11 103-35 0 0-6 75-11 88z"/></g></svg>