<svg enable-background="new 0 0 750 1000" viewBox="0 0 750 1000" xmlns="http://www.w3.org/2000/svg"><desc>NFT on the ERGO blockchain. Author @maritsaart. Copyright (c) 2001-2023 @maritsaart</desc><path d="m0 0h750v1000h-750z" fill="#7ec5c2"/><path d="m691 728c0 117-65 219-161 272h-297c-150.4-81.7-206.1-270-124.4-420.4s270-206.1 420.4-124.4c100 54.3 162.1 159 162 272.8z" fill="#f62b00"/><path d="m0 0v31c94 55 269-4 358 21 18 4 152 49 172 58 45 21 126 25 126 25-127 32-310-19-443 38-23 10-122 55-213 52v148c24-3 80-6 125-45 16-13 115-87 151-106 77-42 206-45 251-42 48 4 196 11 223 9v-189z" fill="#fff"/><path d="m499 774h10l16-31h-39l-50-149 12-16v-17h-19l-41-383 19-15-9-42-12-8-5-79-5 79-12 9-7 40 16 16-40 381h-18v17l15 15-46 150h-38l12 29h11l-127 218h126s14-126 114-129 119 129 119 129h129zm-117.2-355.8 12.2 141.8-20 1zm-41.8 322.8 27-117 34-1 27 118z" fill="#08041b"/><path d="m750 769v231h-750v-262c72.3 147.3 220 242.6 384 248 150-1 283-86 366-217z" fill="#4c0940"/></svg>