<svg viewBox="0 0 750 1000" xmlns="http://www.w3.org/2000/svg"><desc>NFT on the ERGO blockchain. Author @maritsaart. Copyright (c) 2001-2023 @maritsaart</desc><path d="m0 0h750v1000h-750z" fill="#4c0940"/><circle cx="377" cy="389" fill="#fff" r="370"/><path d="m750 673v327h-750v-255l192-85 67 30 61-21 115 11 97-63z" fill="#08041b"/><path d="m0 788h750v212h-750z" fill="#7ec5c2"/><path d="m489 596 70 2 5-20 52-8-11-28 12-18s-46 10-215 12-313-62-313-62l10 23-3 35 54 17 7 22c20 5 51 9 88 13v9h6l-2 25c-42-3-77-6-93-9v9h8l-2 22 86 6-6 93h-29v-21h7v-8h10l-29-15-29 14h10v9h6v21h-5v8h5l-4 133h26l1-23h24l-1 23h41v-23h16v23h34l-1-136h4v-8h-4v-25h8v-8h6l-29-15-28 14h6v9h6v28h-19v-91l184 11-1 84h-16v-18h5v-7l10 1-30-16-28 15h8v7h7l-1 20h-5v8h5l-2 128h31v-26h15l-1 25h42l-1-25h33v26h27l2-133h3v-7h-3v-22h9v-7h6l-29-15-29 15h8v7h6v24h-38l-4-83c31 1 55 1 68-1v-19h4l-1-6-72-3-1-25h4zm-278 237 2-72h28l-4 72zm64 0-1-72h19l-2 72zm166-4v-61h15v61zm88 0h-34l-3-61h37zm-255-209v-27h7v-6l59 3 7 34zm184 9-64-3 8-33 52 2v11h5z" fill="#f62b00"/></svg>