<svg enable-background="new 0 0 750 1000" viewBox="0 0 750 1000" xmlns="http://www.w3.org/2000/svg"><desc>NFT on the ERGO blockchain. Author @maritsaart. Copyright (c) 2001-2023 @maritsaart</desc><path d="m0 0h750v1000h-750z" fill="#000d23"/><path d="m0 0h750v1000h-750z" fill="#377983"/><path d="m0 0h750v1000h-750z" fill="#377983"/><path d="m750 286.7v560.3h-750v-503c54.2 12.2 118.4 43.6 145.5 122.1 0 0 78.8-4.9 111 28.4 0 0 30.6-142.7 65.3-155.2 11.6-4.2 56.7-9 71.2-4.1 14.5 4.8 42.7 71.1 42.7 71.1s75.9-24.9 139.4-8.5c3.5-7.4 68.3-173.5 68.3-173.5 40.8-18.2 76.8 2.8 76.8 2.8 8 14.2 18.4 35.2 29.8 59.6z" fill="#000d23"/><circle cx="149.9" cy="111.4" fill="#ff6e51" r="5.2"/><path d="m0 629.7v370.3h750v-370.3z" fill="#fdbd56"/><path d="m241.4 766.7-104 233.3h-137.4v-143.4l144.2-113zm192.2 233.3h-197.4l81.2-257 93.8 19zm288.4-153 28 39.9v113.1h-218.4l-34.1-153-28-129 171.4 13.4z" fill="#ff6e51"/><path d="m750 561.1v123.8l-203.2-55.2s-485.9 17.6-546.8 20.8v-100.5l83.6-22.5 132.5 5.2 1.2 28.3 8.4-.5-.2-9.6 18.9-18.1 65.6 2.5 1.3 25.8 22.1 2.8-.3-12.9 3.9-16.9 64.3-1.3 9.8 13.6-2 11.3 15.4.9 1.3-22 69.4-3.7 20.2 12.4-1 13 9.2-23 140.2-4.9z" fill="#fae9ca"/><path d="m185.9 546.3 30.2-13.6 1.3 28.3-29.2 25zm114.2 8.6 9.9-19.6 1.3 25.8-14.2 33.4zm125.7-18.3 17.1 10.8-1.9 33.1-16.5-21.9zm97.8-1.3 64.3 36-38.9 6.4-35.7-20.5zm-51.5 97.8-2.6 84.9 26.7 46.3 17.1-117.1zm-230.7 133.6 21-33.3-1.3-92.6-43.7-3.9z" fill="#377983"/><path d="m750 609.3v367.6l-98.3-129.9-62.6-82.7h-92.9l.3-7.5v-.1l1.4-35.4 2.9-72.9-29.1-1-36.3-1.3-24.2 115.9h-.8l-97.9-3.4-.1-1-13.6-108-62 2.3 4.6 114.8h-96.3l-63.7 80.3-81.4 102.9v-360.7c48.6-20.2 102.5-41.8 102.5-41.8l88.1-3.4h.3l3.4 36.6v.2l32.1-1.2-.8-19.1-.4-9.6h76.9l2.3 26.2v.2l29.8 2.3-1-15.7-.8-12.9h.6l78.1-4.6-1.2 11.3-2.2 20.8 31-1.1 2.3-31.2 74.4-.9h.2l-.6 8.3-.3 3.7-.1.8-1.3 18.2h33.3l6.9-24.3 70 1.3z" fill="#000d23"/><path d="m478.3 0c-10.7 47.7-53.2 83.3-104.1 83.3s-93.4-35.6-104.1-83.3z" fill="#fdbd56"/></svg>