<svg enable-background="new 0 0 750 1000" viewBox="0 0 750 1000" xmlns="http://www.w3.org/2000/svg"><desc>NFT on the ERGO blockchain. Author @maritsaart. Copyright (c) 2001-2023 @maritsaart</desc><path d="m0 0h750v1000h-750z" fill="#377983"/><path d="m750 773v227h-750v-226h108l72-1h72c189-1 413-2 498 0z" fill="#ff6e51"/><path d="m234 84s-10-14-31-10-46 13-47 33 1 17 1 17-11 11 6 27l9 8 4 19-39 19-48 14s-69 85-56 174 10 74 2 100 54 80 54 80l1 28 14 19-9 18 12 23-14 48 14 24-10 23 11 19-1 27 7 12v19l10 16 155-1 16-10-50-24-24-197 38-28 11-286s-52-107-52-104 27-27 27-27l5-32z" fill="#fae9ca"/><path d="m177 152s-21-14-9-20c0 0-10-7-8 5 0 1 4 13 17 15zm-31 207s-19-36-16-87-13-67-15-67c0 0 3 14 4 51s-13 86-13 89c0 14 40 14 40 14z" fill="#000d23"/><path d="m276 256c-6-34-38-57-41-59v-9c7-3 11-7 16-26 5-21 1-47 1-47 5-7 1-9-1-9l-7-19c-4-9-23-15-33-14-1 0 8 2 15 9 6 8 5 24-4 23-26-3-22 16-22 16 6-11 16-10 19-9v1l-3 1c-4 2-2 14-1 14 9-2 14-8 14-8 2-8 8-8 8-8 4 0 10 13 13 21 1 2-3 3-6 4-4-2-11-4-13-2-2 4 2 5 5 5l-2 7s-16 5-18 4c0 0-7-6 12-21 0 0-19-4-16 33-1 0-5 5-11 6-12 2-22-11-22-11s4 10 10 14l9 6s-3 8-2 17-6 12-6 12l-11-14-3-16-7 4c12 35 5 63 5 63s-22-47-38-46c0 0 58 106 56 146-1.5 23-26 25-26 25-60 6-43-23-71-3-27 20-19 9-45 22-23 11 0 52 5 61l-13 42 43 45-7.7 18.1 17.7 17.9 8-45s-3 0-13-5c-11-5-15-17-15-17l-1-34-8-30c-14-60 41-69 43-69l20 28-11 50h-11l-32 21 48-12 13 11c-4 8-4 25-4 34 0 3-5 4-6 1-4-8-4-30-5-30-9 12-6 31-4 41 1 3-3 5-5 3-5-6-9-22-9-21-2 20 12 34 15 36l37-15 12 7c9-2 18-36 19-39l9-13-24-53c25-4 62 4 66 5l10 56-2 82-26 27-129 2 14 19 61-7c1 7-24 27-24 27 31 0 62-20 67-23 1-1 2 11 1 25-1 15-37 65-44 78l40-41c-7 25-53 73-62 82l24-8 16 25c-1 1-6 11-17 16-10 5-11 10-11 12 0 1 33 14 35 29 0 5-5 9-8 11l74 3c-1-3-5-15-28-17-25-2-26-26-26-29 0-4 33-7 35-3l13 23c9 1 23 8 24 8 6.7-1.1 19 7 5 15h25l2-13c0-7-24-6-31-10-7-5-30-18-29-19l3-3-1-15c10-11 3-17 2-18l-1-10 12-5-5-22c0-2 8-12 9-13l1-23c14-9 16-26 16-29l-7-5-1-36 8-4-1-9 6-3-11-49 12-13-1-30c7-7 2-11 1-12v-7c5-1 31-23 31-23l-3-12 9-10c7-7-43-155-49-189zm-52-104 8 1s4 4 0 6c-2 2 2 16-8 16-7 0-14-4-14-4zm-6 261-74 1-4-27c0-7.3 12.5-12.8 25-13 0 0 34 1 43-13s-21-96-18-109c3-14 17-34 17-34s13-10 21 69c4 42 3 72 1 92l-7 1zm37 6-5-5-23-182c32 55 29 173 28 187z" fill="#000d23"/><path d="m482 1000h-482v-60l50-73 1-30h132l71-1h98v32z" fill="#fdbd56"/><circle cx="583.4" cy="113.9" fill="#fae9ca" r="57.4"/><path d="m750 0v297c-1-1.8-2.1-3.7-3.1-5.5-150.6-261.9-485-352.1-746.9-201.5v-90z" fill="#fdbd56"/></svg>