<svg enable-background="new 0 0 750 1000" viewBox="0 0 750 1000" xmlns="http://www.w3.org/2000/svg"><desc>NFT on the ERGO blockchain. Author @maritsaart. Copyright (c) 2001-2023 @maritsaart</desc><path d="m0 0h750v1000h-750z" fill="#7ec5c2"/><path d="m735 215c-1.1 198.3-162.8 358.1-361 357-198.3-1.1-358.1-162.8-357-361 .4-76 24.9-149.9 70-211h577c44 60 71 134 71 215z" fill="#f62b00"/><path d="m645 503-46 348-65 149h-286l3-54-47-34-38.8-274-19.6-42.1s3.3-34.9-6.7-38.9l-17-2 13-8s2-20 22-12l127-355 12-138 48-31h37l115 182 43 53z" fill="#fff"/><path d="m323 76c-11-2-17 4-17 4 10-4 11 1 13 2-9 0-12 8-12 8l10-3 4 5 4-8zm57-6-24-19v13s-22-3-24 8l2 35 7 1 2 8s0 2-5 4c0 0 8 1 12-1 0 0-4 6-8 6 0 0 6 3 15-1 7-3 4 13 4 13l-12.6 3.4 41.6 20.6-24 15 50 7zm-15 28c-5 7-13 16-16 16-3 1-4-2-5-5l2-8-9-9v-13l9 2 19-9 8 9zm-39 30-27-50-19 125 51-33zm80 134-4 111 54-6-11-143zm-59 13 1 93 47 2-3-97zm-35-36-72 137 70-110v102l22 4-4-134zm-138.4 308.5s19.4-19.5 28.4-24.5c12-4 29-5 40-5 4 5-9 36-9 36l22-9s-6 80-58 79c-51-1-51-36-51-36s-8 51 29 53l47 141-31 29 65 36-23-205 36-17 19.4-143.8s-117.4 25.8-121.4 28.8zm415.4-58.5 15 36-13 60c-34 20-45-63-45-63l-56.8-154.4-17.2 7.4 25 252 137.1 112.6 12.9-234.6zm-12-113-63-147-45-55-16 26 17 161 52-12z" fill="#4c0940"/><g fill="#08041b"><path d="m312 47-3 43 35 50h6l2 31-11 21-27 17 7-35-3-47-15-30-18 102-112 334h16l4 23h-13l-23.3-21.1 124.3-354.9 10-136 41-17 17 3 49 55 41 81-23 17-18-12-2-18-12-33-7-45-36-37zm-58 484-23 25h12l22-14 4 9-35 35 28-13s13 32-10 50c-23 19-66 13-66 13l40 12 14 113-49 50 54-37 7 69-47 70 58-64-21-204s29-6 33-17l14-150-15 52z"/><path d="m663 586-38 252-32 56-2 27-29 33-1 46h-73l-24-616-25-9 18 625h-32l8-621h-20v375l-10 3 12 13-3 230h-24l4-245-18-1 7 13-5 233h-14l5-239-58-4 55-16 23-340-3 343 14 2 5-366-57 3-9 12-100-5 80-10-17-13h10l22-1 16-1 47-2h6l38-2-1-133 15-28s48 38 54 51c6 14-28 102-28 102l43-4-43 15 45 3-40 5-6 14c34 21 24 89 24 89l11 44 52-21-21 16 3.1 14.1-29.1 1.9 4 119 9 250 60-72-15-3 31-90-54-6 55-10 23-130-9-89h-23l15 49-10 2 4 32-17 3 9-58-23-39 14-10-15-101 35 58-72.1-189.1 117.1 244.1zm-308-561 26-14 30 18 85.2 164.4z"/></g></svg>