<svg enable-background="new 0 0 750 1000" viewBox="0 0 750 1000" xmlns="http://www.w3.org/2000/svg"><desc>NFT on the ERGO blockchain. Author @maritsaart. Copyright (c) 2001-2023 @maritsaart</desc><path d="m0 0h750v1000h-750z" fill="#fff"/><path d="m121 0h-46c-1 6 2 56 53 97-74-17-95-92-97-97h-31v48c5 12 32 47 81 66 34 13 100 20 98 86-1 7 49 12 50 4 2-126-80-109-108-204zm79 0h-31s68 52 76 126c0 1 16-61-45-126z" fill="#f62b00"/><path d="m750 194v591l-35 2c-164.5 3.7-300.9-126.7-304.6-291.3s126.7-300.9 291.3-304.6c16.1-.3 32.3.6 48.3 2.9z" fill="#7ec5c2"/><path d="m170 1000h-170v-901z" fill="#4c0940"/><path d="m692 914c-11-16-95-54-102-50-6 4-19 28-22 32l-25-16c-1-7-16-85-35-98l-31-15c-3-3-26-42-27-45 2-3 12-19 0-44-2-6 3-48 3-59l74-11-76-7c12-4 66-44 66-44-7 1-62 23-77 27l-8-10h1l37-64-56 53-18-5-17-75-5 76c-8 0-14 1-20 4-18-13-58-47-60-48l41 63-3 3-57-15c-1-5-6-56-17-73-5-8-10-15-12-24-3-10-7-66-9-84 6-9 5-32-5-35-2-5-11-33-11-33 6-4 12-6 19-9 7 3 16-1 18-9 2-3-1-49-6-56-5-5-16-11-26-13 3-3 4-6 5-10 1-7 0-32-4-29-2 2-9 12-12 13s-31-2-33-2c0-9-2.1-16.1-5.4-25 0 0-4.6 16-4.6 30l-3 25c-5 2-22 13-25 18s5 25 8 20c5-6 36-23 36-23 10-1 39 18 39 18l-2 16c-9 0-81 2-77 8 3 7 16 31 20 36 5 4 32 9 39 9l1 6c-5-1-28 3-36 5 0 0 26 7 38 8l1 5-35 2 35 10 1 7-34 6c-2 1-1 37-1 42 0 0 7-31 6-37 6 2 26 3 29 4v32c-9 1-18 3-26 7l-3 26c0 11-2 70 2 88 2 8 6 14 11 20 1 1 6 34 3 49-2 14-8 27-15 40s-10 26-10 41c-2 41 23 79 28 88 9 14 10 30 12 47 3 23 17 9 19 5 6-15 15-32 27-44 10-10 20-20 27-32-5 20-56 94-61 101-5 8-12 17-10 27 2 8 32 30 37 20 12-26 5-55 23-92 2-3 18-39 20-55 2-9 2-18 1-28 3-9 19-41 24-47 1 4 8 15 7 11 0 0-21 35-7 74 0 1 2-18 7-24 10-13 14-26 17-32l21 7c4 7 24 37 32 40 4 2 21 11 22 13-6 5-32 38-40 48-16 23-135 136-168 178h21c11-17 190-218 193-221l12 7c-7 10-150 155-158 165-8 11-25 44-27 49h26c4-9 23-50 30-59 9-9 42-35 49-41-22 31-38 65-54 100h29c4-11 111-205 114-210l32 4 11 15c5 10 43 132 47 137l1 1-5 14-48-129c-5.6-10.2-9 3-9 3-2 5-9 50-7 56s22 32 28 41l5 21-3 3c-3-10-8-20-16-25-9-6-25-13-34-4-1 1 11 7 16 10 3 3 13 58 14 63h65l3-33c6-12 50-92 53-92s69 37 73 41c-10 9-18 23-22 35-3 0 0 14 3 14l-5 17c-5-1-10-1-15-4-2-1 2 7 5 9 4 3 4 11 3 13h25s10-24 9-35c-1-4-2-7-4-9 1-6 22-40 20-42zm-497-381-4-52v-27c0-5 1-13-1-19l22 1-1 6c-3 5-7 9-12 13-4 4-8 8-7 14 0 7 5 12 9 18 7 9 13 24 24 29l12 3v70l2 12c-4-1-8-2-12-5-6-6-9-13-13-20l-12-20c-5-7-7-15-7-23zm62 134c-11 20-21 41-35 58-4 5-14 18-22 17-4-1-5-7-6-10l-7-19c-4-13-3-27 1-39l13-32c7-21 8-43 4-64l7 11c5 11 15 26 27 30v2c1 6 4 11 8 16 3 4 10 3 13-1 2-1 5-3 8-1v2c0 11-6 21-11 30zm29-58-6-5-4-29 48 19-5 10zm149 3c-5 1-11 4-16 3-16-4-11 14-11 14h-11c-13-1-7 28-6 31 1 4-1 8-5 6-3-1-17 6-6 15 0 0 18 6 22 5 3-1-2-33-2-42l14 4c1 4 1 9-1 13-28 66-54 34-58 29-10-12-10-34-8-44 4 0 23-10 22-10-3-3-13-2-14-2 1-5 10-15 13-16 0 0 19-7 22-12 2-2-10-10-12-9-7 3-13 9-20 13l-21 11c-7 4-9 10-11 16l-11 32c-3 2-7 7-11 6-7-1-10-50-10-52 1 0 33-5 34-9 1-1 22-28 53-29 44-1 54 25 54 27z" fill="#08041b"/></svg>