<svg enable-background="new 0 0 750 1000" viewBox="0 0 750 1000" xmlns="http://www.w3.org/2000/svg"><desc>NFT on the ERGO blockchain. Author @maritsaart. Copyright (c) 2001-2023 @maritsaart</desc><path d="m0 0h750v1000h-750z" fill="#0a4c6d"/><path d="m532 551-14 449h-417l-50-111zm-474-406c0 31-26 57-58 58v-117c32 1 58 27 58 59z" fill="#ffb266"/><path d="m349 189s1 22 9 80c-9-14-24-9-24-9s-9-9-19-6c-8 3-19 10-19 10zm17 132v-1c10 57 15 106 17 121l-61 4-10-4-7-13s8-32 2-45l-20-39zm-173 365 61-234 133 8s75 77 140 103c-32 39-104 111-105 112l-395 253zm195-686c-9 36-29 132-29 132l-22 7-15 30 5 28c-10 9-28 22-65 38l-19 25s-27 3-37 16c-10 12-18 28-18 28s-33 29-39 78c-7 50-10 101-10 101s-18 33-15 52 19 47 19 47-10 56 6 109c0 0-51 28-57 71-7 43-17 86-59 112-5 4-33 4-33 4v122h750v-1000z" fill="#fff7d4"/><path d="m288 404s12-28-1-47c-14-20-25-29-25-29s10 32-40 43l-56 58 3 52-24 31 3-19s-25 34-17 56 18 33 18 33-7 32 4 112c0 0-39 50-47 92s-61 92-61 92l36 21 84-32-34-6-39 15s2-69 96-151c40-35 43-273 43-273l43 1s4-31 12-34c9-2 21 13 21 13s-10-30-19-28zm262 381-173 44-64-48 23-12s-7-13-20-9l-45 18-72 94 39 12-175 116h687v-267zm68-785h132v674l-237-67 55-53-133-67-37-34 70-183-105-126z" fill="#5e3c66"/><path d="m449 152 31-18-9 42z" fill="#ffb266"/><path d="m298 266 41-41 15-38s13-16 18-17c0 0 0-12-18 1 0 0-1-17 12-24l1-12-27 8-13 24 5 27-5 17s-59 30-59 40c0 9 22-2 20 6-1 8-46 11-48 37l25 3s8-30 33-31zm-43 70c18 6 30 40 30 40 5-6 2-19 2-19l12 6c12 6 37-15 37-15s29-6 30-30c2-23-9-39-22-42-16-4-34-7-61 16-27 24-35 14-35 14l-13 13c-1 0 3 11 20 17zm293 460c-41 31-82 43-82 43l55 49s-74 49-199 50c-83 1-170 37-219 62h647v-405c-21 7-48 24-80 56-53 54-70 104-122 145z" fill="#0f0638"/><path d="m512 0 90 120-94 244 90-20-19 58-108 36c-7-2-19-3-41-2 0 0 25-15 19-19s-28 14-35 16c-7 1-13 4-17 11l-78 9s-11-8-6-12c0 0-13-1-18 8 0 0-28 6-23-16 4-23 16-29 16-29s-19 1-28 22l-34-24s-7-14 6-17 35 14 35 14l20-4s-3-26-18-31c-14-5-19 21-54-9l-33 19-6 36-18 6-6 42 34 2-38 33s29-15 53-8l3 13s-48 1-59 24c0 0-7 25 13 41 20 15 56 15 56 15l70 33s-30 20-30 60c0 41-19 104-27 123s3 28 21 25c20-3 58-16 58-16 17-11 30-35 30-35s-44 17-58 13c-8-3-3-23-3-23s27-92 72-117 12-63 5-71-40-64-101-81l10-29s19 24 32 27c19 5 37-6 115-23 18 15 95 80 150 99 27 9 54 13 77 4l115-45v-522zm-240 818s-97 52-162 61c-58 8-104-16-110-18v139h27s204-135 245-182z" fill="#0f0638"/><path d="m312 312-23 15 10 31 3-29zm-86-4-39 18-18 39zm-7 264 11-20 1 27zm80 53-26 37-2 27zm-50 153 9 10s-14 17-15 14z" fill="#5e3c66"/></svg>