<svg height="185pt" viewBox="0 0 199 185" width="199pt" xmlns="http://www.w3.org/2000/svg"><path d="m54.55 91.832c-.421 7.414 5.255 13.758 12.634 14.184h.793c7.43 0 13.425-6.024 13.375-13.489 0-7.465-5.997-13.488-13.426-13.437-7.114 0-13 5.601-13.375 12.742m-49.988-3.465c-2.387-.16-4.459 1.707-4.563 4.106s1.7 4.48 4.086 4.586c2.387.16 4.406-1.707 4.562-4.106.16-2.398-1.695-4.426-4.085-4.586m49.14-74.691c2.121-1.067 2.973-3.735 1.91-5.867-1.062-2.13-3.715-2.985-5.836-1.918-2.125 1.066-2.972 3.68-1.91 5.812 1.059 2.184 3.66 3.09 5.836 1.973-.05 0 0 0 0 0m13.587 23.832c3.288-1.653 4.616-5.707 2.972-9.012-1.649-3.305-5.68-4.637-8.969-2.984-3.293 1.652-4.617 5.703-2.973 9.008 1.645 3.308 5.68 4.64 8.97 2.988m-45.743 16.367a5.535 5.535 0 0 0 7.64-1.602 5.59 5.59 0 0 0 -1.593-7.675 5.534 5.534 0 0 0 -7.64 1.597c-1.7 2.559-.958 6.028 1.593 7.68m8.117 32.094c-3.715-.215-6.844 2.613-7.059 6.344a6.687 6.687 0 0 0 6.317 7.09c3.715.214 6.844-2.61 7.058-6.344.211-3.676-2.601-6.875-6.316-7.09m-7.374 45.156a5.574 5.574 0 0 0 -2.442 7.465 5.523 5.523 0 0 0 7.43 2.453 5.574 5.574 0 0 0 2.44-7.465c-1.382-2.719-4.722-3.84-7.429-2.453m26.001-59.07c3.663 2.398 8.546 1.386 10.878-2.293 2.39-3.68 1.383-8.582-2.281-10.93-3.66-2.398-8.543-1.387-10.88 2.293-2.386 3.625-1.378 8.531 2.282 10.93m82.52-35.082c3.078 2.027 7.27 1.172 9.289-1.918 2.015-3.094 1.164-7.305-1.91-9.332-3.079-2.024-7.274-1.172-9.29 1.922-2.07 3.144-1.218 7.304 1.91 9.328m13.692-23.723c2.016 1.332 4.672.746 5.996-1.281 1.328-2.028.742-4.692-1.273-6.024-2.016-1.332-4.668-.746-5.996 1.227-1.274 2.023-.692 4.742 1.273 6.078m-12.684 65.734c-7.375-.425-13.742 5.278-14.113 12.688-.426 7.414 5.254 13.808 12.629 14.183h.742c7.375 0 13.375-6.023 13.375-13.488.051-7.09-5.52-13.008-12.633-13.383m-60.125-7.89c2.286 4.531 6.899 7.41 11.996 7.41 7.376 0 13.372-6.024 13.372-13.488 0-2.079-.477-4.157-1.434-6.079-3.344-6.664-11.406-9.328-17.988-5.968-6.633 3.41-9.285 11.515-5.946 18.125m105.019-17.219c2.708-1.387 3.77-4.746 2.392-7.465-1.383-2.719-4.723-3.785-7.43-2.398-2.707 1.386-3.77 4.691-2.442 7.41 1.434 2.719 4.723 3.84 7.48 2.453m-33.96 4.265c-3.875 1.973-5.465 6.715-3.504 10.61 1.965 3.89 6.688 5.488 10.563 3.516 3.87-1.973 5.464-6.715 3.5-10.61-1.961-3.89-6.684-5.437-10.559-3.515m-43.781-46.918c3.023.16 5.625-2.188 5.84-5.227.21-3.039-2.176-5.648-5.204-5.863a5.557 5.557 0 0 0 -5.835 5.172c-.16 3.093 2.175 5.703 5.199 5.918m-.051 34.812c4.352.27 8.062-3.09 8.277-7.46.266-4.376-3.078-8.106-7.43-8.321-4.35-.266-8.066 3.094-8.277 7.465-.215 4.37 3.078 8.105 7.43 8.316m-42.668 80.825c3.875-1.973 5.465-6.715 3.504-10.61-1.965-3.89-6.688-5.488-10.563-3.516-3.87 1.973-5.464 6.715-3.5 10.61 1.961 3.89 6.684 5.488 10.559 3.515m47.762-69.254c-4.035 6.239-2.336 14.555 3.87 18.606 6.212 4.055 14.49 2.348 18.524-3.89 4.031-6.239 2.332-14.555-3.875-18.606a13.24 13.24 0 0 0 -7.324-2.188c-4.512 0-8.703 2.293-11.195 6.078m23.297 56.301c-3.344-6.664-11.41-9.332-17.993-5.972-6.632 3.359-9.285 11.464-5.941 18.074 3.344 6.664 11.406 9.332 17.988 5.972 6.582-3.308 9.285-11.304 5.996-17.968 0-.055 0-.055-.05-.106m23.401-.961c-3.663-2.398-8.546-1.386-10.878 2.293-2.39 3.68-1.383 8.582 2.281 10.93 3.66 2.398 8.543 1.387 10.88-2.293 2.386-3.625 1.378-8.531-2.282-10.93m25.684-20.207a6.69 6.69 0 0 0 -6.317-7.09c-3.715-.21-6.844 2.614-7.058 6.344a6.69 6.69 0 0 0 6.316 7.094c3.66.21 6.844-2.668 7.059-6.348m18.519-4.797c-2.387-.16-4.457 1.707-4.562 4.106-.11 2.398 1.695 4.476 4.085 4.586 2.387.16 4.403-1.707 4.563-4.106a4.38 4.38 0 0 0 -4.086-4.586m-17.461 43.184a5.535 5.535 0 0 0 -7.64 1.602 5.59 5.59 0 0 0 1.593 7.675 5.534 5.534 0 0 0 7.64-1.597c1.7-2.559.958-6.028-1.593-7.68m-123.008 40.625c-2.015-1.332-4.668-.746-5.996 1.227-1.324 2.027-.742 4.691 1.223 6.027 2.016 1.332 4.668.746 5.996-1.227 1.379-1.972.797-4.691-1.223-6.027m90.852-.426c-2.121 1.067-2.973 3.735-1.91 5.867 1.062 2.13 3.715 2.985 5.836 1.918 2.125-1.066 2.972-3.68 1.91-5.812-1.059-2.184-3.66-3.09-5.836-1.973zm-50.309-43.929c4.035-6.239 2.336-14.555-3.87-18.66a13.396 13.396 0 0 0 -18.575 3.89c-4.086 6.238-2.336 14.555 3.871 18.66a13.25 13.25 0 0 0 7.324 2.188c4.567.05 8.758-2.239 11.25-6.078m-26.797 20.632c-3.078-2.027-7.27-1.172-9.289 1.918-2.015 3.094-1.164 7.305 1.91 9.332 3.079 2.024 7.274 1.172 9.29-1.922 2.07-3.09 1.218-7.304-1.91-9.328m31.253 25.75c-3.023-.16-5.625 2.188-5.836 5.227-.21 3.039 2.176 5.648 5.2 5.863a5.56 5.56 0 0 0 5.84-5.172c.16-3.093-2.176-5.703-5.204-5.918m.055-34.812c-4.352-.27-8.066 3.09-8.277 7.46-.266 4.376 3.078 8.106 7.43 8.321 4.35.211 8.066-3.094 8.277-7.465.265-4.32-3.078-8.105-7.43-8.316m32.21 8.527c-3.288 1.707-4.616 5.758-2.917 9.067 1.7 3.304 5.73 4.636 9.02 2.93 3.292-1.653 4.617-5.704 2.972-9.009-1.7-3.308-5.73-4.69-9.074-2.988m0 0" fill="#0033ad"/></svg>