<svg height="200pt" viewBox="0 0 200 200" width="200pt" xmlns="http://www.w3.org/2000/svg"><g fill="#2081e2"><path d="m127 16.668h-32.453c-14.7 0-26.344 0-35.461 1.23-9.379 1.266-16.969 3.934-22.957 9.942-5.984 6.012-8.645 13.633-9.902 23.05-1.227 9.154-1.227 20.845-1.227 35.607v48.645c0 12.566 7.668 23.336 18.559 27.851-.559-7.579-.559-18.211-.559-27.059v-41.746c0-10.684 0-19.883.984-27.254 1.059-7.899 3.446-15.47 9.559-21.61 6.117-6.14 13.656-8.535 21.523-9.594 7.34-.992 16.508-.992 27.145-.992h25.578c10.637 0 19.785 0 27.125.992-4.39-11.164-15.234-19.062-27.914-19.062m0 0"/><path d="m55 94.977c0-22.715 0-34.075 7.031-41.133 7.028-7.059 18.344-7.059 40.969-7.059h24c22.629 0 33.941 0 40.973 7.059 7.027 7.058 7.027 18.418 7.027 41.133v40.164c0 22.718 0 34.074-7.027 41.132-7.032 7.059-18.344 7.059-40.973 7.059h-24c-22.625 0-33.941 0-40.969-7.059-7.031-7.058-7.031-18.413-7.031-41.132zm0 0"/></g></svg>