<svg height="146pt" viewBox="0 0 199 146" width="199pt" xmlns="http://www.w3.org/2000/svg"><path d="m165.559 12.371c21.55 31.79 32.191 67.649 28.214 108.934a.63.63 0 0 1 -.25.437c-16.32 12.024-32.128 19.32-47.718 24.16a.61.61 0 0 1 -.672-.226 128 128 0 0 1 -9.742-15.895.62.62 0 0 1 .328-.855 97.3 97.3 0 0 0 14.89-7.106.616.616 0 0 0 .051-1.02 73 73 0 0 1 -2.96-2.327.58.58 0 0 0 -.626-.078c-30.86 14.3-64.668 14.3-95.894 0a.59.59 0 0 0 -.617.085c-.954.79-1.954 1.57-2.954 2.32a.614.614 0 0 0 .059 1.02c4.754 2.735 9.695 5.14 14.887 7.118a.606.606 0 0 1 .328.843c-2.805 5.57-6.078 10.871-9.746 15.903a.62.62 0 0 1 -.672.218c-15.512-4.84-31.324-12.136-47.645-24.16a.65.65 0 0 1 -.246-.445c-3.324-35.711 3.45-71.867 28.188-108.934a.53.53 0 0 1 .254-.218 156.6 156.6 0 0 1 38.84-12.086.62.62 0 0 1 .624.296c1.684 2.993 3.61 6.829 4.91 9.965 14.368-2.203 28.958-2.203 43.622 0 1.304-3.07 3.16-6.972 4.836-9.965a.59.59 0 0 1 .625-.296 157 157 0 0 1 38.84 12.086.47.47 0 0 1 .246.226m-80.864 67.895c.149-10.559-7.52-19.293-17.148-19.293-9.55 0-17.149 8.66-17.149 19.293 0 10.629 7.747 19.289 17.149 19.289 9.55 0 17.148-8.66 17.148-19.29m63.399 0c.152-10.559-7.52-19.293-17.145-19.293-9.55 0-17.148 8.66-17.148 19.293 0 10.629 7.746 19.289 17.148 19.289 9.625 0 17.145-8.66 17.145-19.29m0 0" fill="#5865f2"/></svg>