<svg height="200pt" viewBox="0 0 200 200" width="200pt" xmlns="http://www.w3.org/2000/svg"><g fill-rule="evenodd"><path d="m38.355 163.117 62.672 25.344 62.328-26.715 25-62.668-26.71-62.332-62.672-25-62.328 26.715-25 62.672zm62.672 36.988c-.683 0-1.37 0-2.054-.343l-67.125-27.055a6.75 6.75 0 0 1 -3.082-3.082l-28.422-66.437c-.688-1.372-.688-2.743 0-4.454l27.054-66.78a6.7 6.7 0 0 1 3.082-3.083l66.438-28.426c1.371-.683 2.738-.683 4.453 0l67.121 27.055c1.028.344 2.055 1.371 2.742 2.742l28.422 66.438c.688 1.37.688 2.738 0 4.453l-27.054 67.12a6.7 6.7 0 0 1 -3.082 3.083l-66.438 28.426c-.344.343-1.371.343-2.055.343m0 0"/><path d="m114.38 99.078-26.711 29.45h42.465v13.015h-59.93v-13.016l26.711-29.449-26.711-27.742v-12.672h59.93v12.672h-41.782z"/></g></svg>