<svg height="200pt" viewBox="0 0 200 200" width="200pt" xmlns="http://www.w3.org/2000/svg" xmlns:xlink="http://www.w3.org/1999/xlink"><radialGradient id="a" cx="26.5752" cy="200.944" gradientUnits="userSpaceOnUse" r="261.08"><stop offset=".09" stop-color="#fa8f21"/><stop offset=".78" stop-color="#d82d7e"/></radialGradient><radialGradient id="b" cx="121.292" cy="209.904" gradientUnits="userSpaceOnUse" r="205.768"><stop offset=".64" stop-color="#8c3aaa" stop-opacity="0"/><stop offset="1" stop-color="#8c3aaa"/></radialGradient><path d="m66.676 100c0-18.41 14.918-33.336 33.328-33.336s33.336 14.926 33.336 33.336-14.926 33.336-33.336 33.336-33.328-14.926-33.328-33.336m-18.02 0c0 28.36 22.989 51.348 51.348 51.348 28.36 0 51.348-22.989 51.348-51.348 0-28.36-22.989-51.348-51.348-51.348-28.36 0-51.348 22.989-51.348 51.348m92.73-53.387c-.003 6.63 5.368 12.004 11.993 12.008 6.629 0 12.004-5.367 12.008-11.996 0-6.629-5.367-12.004-11.996-12.004h-.004c-6.625.004-11.996 5.371-12 11.992m-81.782 134.785c-9.75-.445-15.05-2.07-18.57-3.441-4.672-1.816-8-3.98-11.504-7.48-3.504-3.497-5.672-6.825-7.48-11.493-1.371-3.52-2.996-8.82-3.442-18.57-.484-10.543-.578-13.707-.578-40.414 0-26.703.102-29.863.578-40.41.446-9.75 2.082-15.043 3.442-18.57 1.816-4.672 3.984-8 7.48-11.504s6.824-5.672 11.504-7.48c3.52-1.372 8.82-2.997 18.57-3.438 10.54-.489 13.708-.582 40.399-.582s29.863.105 40.41.582c9.75.441 15.043 2.078 18.574 3.437 4.668 1.809 8 3.985 11.5 7.48 3.504 3.497 5.664 6.833 7.48 11.505 1.372 3.52 2.997 8.82 3.442 18.57.485 10.547.582 13.707.582 40.41 0 26.707-.097 29.863-.582 40.414-.445 9.75-2.078 15.047-3.441 18.57-1.817 4.668-3.98 8-7.48 11.493-3.497 3.496-6.833 5.664-11.5 7.48-3.524 1.375-8.825 2.996-18.575 3.441-10.539.485-13.707.582-40.41.582s-29.863-.097-40.399-.582m-.828-180.793c-10.647.485-17.922 2.172-24.273 4.645-6.578 2.555-12.149 5.977-17.715 11.535-5.566 5.555-8.979 11.137-11.535 17.715-2.474 6.355-4.16 13.625-4.645 24.273-.492 10.66-.605 14.07-.605 41.227s.113 30.566.605 41.227c.485 10.648 2.172 17.918 4.645 24.273 2.555 6.574 5.969 12.16 11.535 17.715s11.137 8.976 17.715 11.535c6.363 2.473 13.625 4.16 24.273 4.645 10.668.484 14.07.605 41.227.605s30.566-.113 41.226-.605c10.649-.485 17.918-2.172 24.274-4.645 6.574-2.559 12.148-5.977 17.715-11.535 5.566-5.555 8.976-11.14 11.535-17.715 2.473-6.355 4.168-13.625 4.644-24.273.485-10.668.598-14.07.598-41.227s-.113-30.566-.598-41.227c-.484-10.648-2.171-17.921-4.644-24.273-2.559-6.574-5.977-12.148-11.535-17.715-5.555-5.566-11.14-8.98-17.707-11.535-6.364-2.473-13.633-4.168-24.274-4.645-10.66-.484-14.07-.605-41.226-.605-27.157 0-30.567.113-41.235.605" fill="url(#a)"/><path d="m66.676 100c0-18.41 14.918-33.336 33.328-33.336s33.336 14.926 33.336 33.336-14.926 33.336-33.336 33.336-33.328-14.926-33.328-33.336m-18.02 0c0 28.36 22.989 51.348 51.348 51.348 28.36 0 51.348-22.989 51.348-51.348 0-28.36-22.989-51.348-51.348-51.348-28.36 0-51.348 22.989-51.348 51.348m92.73-53.387c-.003 6.63 5.368 12.004 11.993 12.008 6.629 0 12.004-5.367 12.008-11.996 0-6.629-5.367-12.004-11.996-12.004h-.004c-6.625.004-11.996 5.371-12 11.992m-81.782 134.785c-9.75-.445-15.05-2.07-18.57-3.441-4.672-1.816-8-3.98-11.504-7.48-3.504-3.497-5.672-6.825-7.48-11.493-1.371-3.52-2.996-8.82-3.442-18.57-.484-10.543-.578-13.707-.578-40.414 0-26.703.102-29.863.578-40.41.446-9.75 2.082-15.043 3.442-18.57 1.816-4.672 3.984-8 7.48-11.504s6.824-5.672 11.504-7.48c3.52-1.372 8.82-2.997 18.57-3.438 10.54-.489 13.708-.582 40.399-.582s29.863.105 40.41.582c9.75.441 15.043 2.078 18.574 3.437 4.668 1.809 8 3.985 11.5 7.48 3.504 3.497 5.664 6.833 7.48 11.505 1.372 3.52 2.997 8.82 3.442 18.57.485 10.547.582 13.707.582 40.41 0 26.707-.097 29.863-.582 40.414-.445 9.75-2.078 15.047-3.441 18.57-1.817 4.668-3.98 8-7.48 11.493-3.497 3.496-6.833 5.664-11.5 7.48-3.524 1.375-8.825 2.996-18.575 3.441-10.539.485-13.707.582-40.41.582s-29.863-.097-40.399-.582m-.828-180.793c-10.647.485-17.922 2.172-24.273 4.645-6.578 2.555-12.149 5.977-17.715 11.535-5.566 5.555-8.979 11.137-11.535 17.715-2.474 6.355-4.16 13.625-4.645 24.273-.492 10.66-.605 14.07-.605 41.227s.113 30.566.605 41.227c.485 10.648 2.172 17.918 4.645 24.273 2.555 6.574 5.969 12.16 11.535 17.715s11.137 8.976 17.715 11.535c6.363 2.473 13.625 4.16 24.273 4.645 10.668.484 14.07.605 41.227.605s30.566-.113 41.226-.605c10.649-.485 17.918-2.172 24.274-4.645 6.574-2.559 12.148-5.977 17.715-11.535 5.566-5.555 8.976-11.14 11.535-17.715 2.473-6.355 4.168-13.625 4.644-24.273.485-10.668.598-14.07.598-41.227s-.113-30.566-.598-41.227c-.484-10.648-2.171-17.921-4.644-24.273-2.559-6.574-5.977-12.148-11.535-17.715-5.555-5.566-11.14-8.98-17.707-11.535-6.364-2.473-13.633-4.168-24.274-4.645-10.66-.484-14.07-.605-41.226-.605-27.157 0-30.567.113-41.235.605" fill="url(#b)"/></svg>