<svg height="167pt" viewBox="0 0 200 167" width="200pt" xmlns="http://www.w3.org/2000/svg"><path d="m74.855 5.965c-3.312-5.965-11.914-5.965-15.222 0l-56.906 103.379c-2.649 5.304 1.32 11.265 7.277 11.265h38.379v39.102c0 3.976 3.312 7.289 7.281 7.289h22.5c3.969 0 7.277-3.312 7.277-7.29v-39.1h-10.586c-4.632 0-7.94-3.313-8.605-7.29 0-1.324 0-2.648.664-3.988l31.762-57.656zm0 0" fill="#39e09b"/><path d="m125.14 5.965c3.312-5.965 11.914-5.965 15.222 0l56.906 103.38c2.649 5.304-1.32 11.265-7.277 11.265h-37.719v39.102c0 3.976-3.308 7.289-7.285 7.289h-23.816c-3.973 0-7.278-3.312-7.278-7.29v-39.1h10.586c4.633 0 7.942-3.313 8.602-7.29 0-1.324 0-2.648-.66-3.988l-31.762-57.64z" fill="#28bf7b"/></svg>