<svg height="200pt" viewBox="0 0 200 200" width="200pt" xmlns="http://www.w3.org/2000/svg" xmlns:xlink="http://www.w3.org/1999/xlink"><linearGradient id="a" gradientTransform="matrix(5 0 0 -5 3545.8 2705.8)" gradientUnits="userSpaceOnUse" x1="-683.3" x2="-693.3" y1="534.84" y2="511.51"><stop offset="0" stop-color="#37aee2"/><stop offset="1" stop-color="#1e96c8"/></linearGradient><linearGradient id="b" gradientTransform="matrix(.83333 0 0 -.83333 0 201.67)" gradientUnits="userSpaceOnUse" x1="128.99" x2="153.99" y1="118.24" y2="78.245"><stop offset="0" stop-color="#eff7fc"/><stop offset="1" stop-color="#fff"/></linearGradient><path d="m200 100c0 55.25-44.75 100-100 100s-100-44.75-100-100 44.75-100 100-100 100 44.75 100 100m0 0" fill="url(#a)"/><path d="m81.668 145.83c-3.25 0-2.668-1.25-3.836-4.332l-9.5-31.332 59-36.836 6.918 1.836-5.75 15.664z" fill="#c8daea"/><path d="m81.668 145.83c2.5 0 3.582-1.164 5-2.5 2.164-2.082 30-29.164 30-29.164l-17.086-4.168-15.832 10-2.082 25z" fill="#a9c9dd"/><path d="m83.332 120.33 40.336 29.75c4.582 2.5 7.914 1.25 9.082-4.25l16.418-77.332c1.664-6.75-2.586-9.75-7-7.75l-96.336 37.168c-6.582 2.664-6.5 6.332-1.164 7.914l24.75 7.75 57.25-36.082c2.664-1.668 5.164-.75 3.164 1.082z" fill="url(#b)"/></svg>