<svg height="200pt" viewBox="0 0 200 200" width="200pt" xmlns="http://www.w3.org/2000/svg"><path d="m200 100c0 55.227-44.773 100-100 100s-100-44.773-100-100 44.773-100 100-100 100 44.773 100 100m0 0" fill="#08c"/><path d="m72.145 66.07h56.07c2.14 0 3.93.36 6.07 1.43 2.5 1.07 3.93 2.855 4.645 4.285 0 0 0 .36.355.36a12.33 12.33 0 0 1 1.785 6.425c0 2.145-.355 4.285-1.785 6.43l-35.355 60.715c-.715 1.43-2.145 2.14-3.93 2.14-1.43 0-2.855-.71-3.93-2.14l-34.64-60.715c-.715-1.43-2.145-3.215-2.145-6.07-.355-2.5.36-4.645 1.43-6.785 1.07-2.145 2.855-3.93 5.355-4.645 2.145-1.43 4.645-1.43 6.075-1.43m23.57 8.575h-23.57c-1.43 0-2.145 0-2.5.355-.715.355-1.075.715-1.43 1.43-.36.355-.36 1.07-.36 1.785 0 .355.36.715 1.075 2.14l26.785 46.43zm8.57 0v52.5l27.145-46.79c.355-.71.355-1.425.355-2.14s0-1.43-.355-1.785c-.36-.36-.36-.715-.715-.715l-.36-.36c-.71-.355-1.425-.355-2.5-.355h-23.57zm0 0" fill="#fff" fill-rule="evenodd"/></svg>